<svg xmlns="http://www.w3.org/2000/svg" width="1600" height="1000">
<style>
text{font-family:Arial;fill:#333} .t{font-size:30px;font-weight:bold} .l{font-size:18px;font-weight:bold} .s{font-size:14px}
.box{fill:#fff;stroke:#4A6FA5;stroke-width:2;rx:12;ry:12}
line{stroke:#4A6FA5;stroke-width:2;marker-end:url(#a)}
</style><defs><marker id="a" markerWidth="10" markerHeight="10" refX="8" refY="3" orient="auto"><path d="M0,0 L0,6 L9,3 z" fill="#4A6FA5"/></marker></defs>
<text x="800" y="40" text-anchor="middle" class="t">Retrieval Pipeline</text>
<rect class="box" x="650" y="70" width="300" height="60"/><text x="800.0" y="105" text-anchor="middle" class="l">User Question</text>
<rect class="box" x="650" y="150" width="300" height="60"/><text x="800.0" y="185" text-anchor="middle" class="l">Embedding</text>
<rect class="box" x="350" y="250" width="300" height="60"/><text x="500.0" y="285" text-anchor="middle" class="l">Vector Search</text>
<rect class="box" x="950" y="250" width="300" height="60"/><text x="1100.0" y="285" text-anchor="middle" class="l">BM25 Search</text>
<rect class="box" x="650" y="380" width="300" height="60"/><text x="800.0" y="415" text-anchor="middle" class="l">Fusion</text>
<rect class="box" x="650" y="470" width="300" height="60"/><text x="800.0" y="505" text-anchor="middle" class="l">Metadata Filter</text>
<rect class="box" x="650" y="560" width="300" height="60"/><text x="800.0" y="595" text-anchor="middle" class="l">Diversity Filter</text>
<rect class="box" x="650" y="650" width="300" height="60"/><text x="800.0" y="685" text-anchor="middle" class="l">Reranker</text>
<rect class="box" x="650" y="740" width="300" height="60"/><text x="800.0" y="775" text-anchor="middle" class="l">Prompt</text>
<rect class="box" x="650" y="830" width="300" height="60"/><text x="800.0" y="865" text-anchor="middle" class="l">LLM</text>
<rect class="box" x="650" y="920" width="300" height="60"/><text x="800.0" y="955" text-anchor="middle" class="l">Answer</text>
<line x1="800" y1="130" x2="800" y2="150"/>
<line x1="800" y1="210" x2="500" y2="250"/>
<line x1="800" y1="210" x2="1100" y2="250"/>
<line x1="500" y1="310" x2="800" y2="380"/>
<line x1="1100" y1="310" x2="800" y2="380"/>
<line x1="800" y1="410" x2="800" y2="440"/>
<line x1="800" y1="440" x2="800" y2="530"/>
<line x1="800" y1="530" x2="800" y2="620"/>
<line x1="800" y1="620" x2="800" y2="710"/>
<line x1="800" y1="710" x2="800" y2="800"/>
<line x1="800" y1="800" x2="800" y2="890"/>
</svg>